<?xml version="1.0" encoding="us-ascii" standalone="no"?><svg xmlns="http://www.w3.org/2000/svg" xmlns:xlink="http://www.w3.org/1999/xlink" contentStyleType="text/css" height="2515px" preserveAspectRatio="none" style="width:3122px;height:2515px;background:#FFFFFF;" version="1.1" viewBox="0 0 3122 2515" width="3122px" zoomAndPan="magnify"><defs/><g><rect fill="none" height="21.1992" style="stroke:none;stroke-width:1.0;" width="3089.75" x="15" y="12.2969"/><ellipse cx="395" cy="48.4961" fill="#222222" rx="10" ry="10" style="stroke:#222222;stroke-width:1.0;"/><line style="stroke:#181818;stroke-width:1.5;" x1="185" x2="570.5" y1="78.4961" y2="78.4961"/><rect fill="#F1F1F1" height="34.1328" rx="12.5" ry="12.5" style="stroke:#181818;stroke-width:0.5;" width="105" x="132.5" y="98.4961"/><text fill="#000000" font-family="sans-serif" font-size="12" lengthAdjust="spacing" textLength="85" x="142.5" y="120.0977">Redes Sociales</text><rect fill="#F1F1F1" height="34.1328" rx="12.5" ry="12.5" style="stroke:#181818;stroke-width:0.5;" width="201" x="265.5" y="98.4961"/><text fill="#000000" font-family="sans-serif" font-size="12" lengthAdjust="spacing" textLength="181" x="275.5" y="120.0977">Recomendaciones de contactos</text><rect fill="#F1F1F1" height="34.1328" rx="12.5" ry="12.5" style="stroke:#181818;stroke-width:0.5;" width="163" x="489" y="98.4961"/><text fill="#000000" font-family="sans-serif" font-size="12" lengthAdjust="spacing" textLength="143" x="499" y="120.0977">P&#225;ginas Web de terceros</text><line style="stroke:#181818;stroke-width:1.5;" x1="185" x2="570.5" y1="152.6289" y2="152.6289"/><path d="M20,162.6289 L20,381.666 A0,0 0 0 0 20,381.666 L291,381.666 A0,0 0 0 0 291,381.666 L291,276.1475 L311,272.1475 L291,268.1475 L291,172.6289 L281,162.6289 L20,162.6289 A0,0 0 0 0 20,162.6289 " fill="#FEFFDD" style="stroke:#181818;stroke-width:0.5;"/><path d="M281,162.6289 L281,172.6289 L291,172.6289 L281,162.6289 " fill="#FEFFDD" style="stroke:#181818;stroke-width:0.5;"/><ellipse cx="31.5" cy="175.4395" fill="#000000" rx="2.5" ry="2.5" style="stroke:#000000;stroke-width:0.0;"/><text fill="#000000" font-family="sans-serif" font-size="13" lengthAdjust="spacing" textLength="60" x="38" y="180.1973">Visualiza:</text><text fill="#000000" font-family="sans-serif" font-size="13" lengthAdjust="spacing" textLength="155" x="26" y="195.5078">- El logotipo de Da Vinci</text><text fill="#000000" font-family="sans-serif" font-size="13" lengthAdjust="spacing" textLength="192" x="26" y="210.8184">- Una descripci&#243;n de Da Vinci,</text><text fill="#000000" font-family="sans-serif" font-size="13" lengthAdjust="spacing" textLength="234" x="42" y="226.1289">destacando sus ventajas y beneficios</text><text fill="#000000" font-family="sans-serif" font-size="13" lengthAdjust="spacing" textLength="128" x="26" y="241.4395">- Un t&#237;tulo que dice:</text><text fill="#000000" font-family="sans-serif" font-size="13" lengthAdjust="spacing" textLength="233" x="42" y="256.75">"Prep&#225;rate para el &#233;xito universitario"</text><text fill="#000000" font-family="sans-serif" font-size="13" lengthAdjust="spacing" textLength="151" x="26" y="272.0605">- Screenshots de la App</text><text fill="#000000" font-family="sans-serif" font-size="13" lengthAdjust="spacing" textLength="194" x="26" y="287.3711">- Una secci&#243;n con testimonios</text><text fill="#000000" font-family="sans-serif" font-size="13" lengthAdjust="spacing" textLength="149" x="42" y="302.6816">de usuarios satisfechos</text><text fill="#000000" font-family="sans-serif" font-size="13" lengthAdjust="spacing" textLength="246" x="26" y="317.9922">- Los pr&#243;ximos examenes de admisi&#243;n</text><line style="stroke:#181818;stroke-width:1.0;" x1="20" x2="291" y1="325.7344" y2="325.7344"/><line style="stroke:#181818;stroke-width:1.0;" x1="20" x2="291" y1="327.7344" y2="327.7344"/><ellipse cx="31.5" cy="338.5449" fill="#000000" rx="2.5" ry="2.5" style="stroke:#000000;stroke-width:0.0;"/><text fill="#000000" font-family="sans-serif" font-size="13" lengthAdjust="spacing" textLength="139" x="38" y="343.3027">Links para instalar en:</text><text fill="#000000" font-family="sans-serif" font-size="13" lengthAdjust="spacing" textLength="62" x="26" y="358.6133">- Android</text><text fill="#000000" font-family="sans-serif" font-size="13" lengthAdjust="spacing" textLength="33" x="26" y="373.9238">- iOS</text><rect fill="#F1F1F1" height="34.1328" rx="12.5" ry="12.5" style="stroke:#181818;stroke-width:0.5;" width="168" x="311" y="255.0811"/><text fill="#000000" font-family="sans-serif" font-size="12" lengthAdjust="spacing" textLength="148" x="321" y="276.6826">Landing page de Da Vinci</text><rect fill="#F1F1F1" height="34.1328" rx="12.5" ry="12.5" style="stroke:#181818;stroke-width:0.5;" width="90" x="350" y="401.666"/><text fill="#000000" font-family="sans-serif" font-size="12" lengthAdjust="spacing" textLength="70" x="360" y="423.2676">Instalar App</text><ellipse cx="395" cy="466.7988" fill="none" rx="11" ry="11" style="stroke:#222222;stroke-width:1.0;"/><ellipse cx="395" cy="466.7988" fill="#222222" rx="6" ry="6" style="stroke:#222222;stroke-width:1.0;"/><line style="stroke:#000000;stroke-width:1.5;" x1="15" x2="15" y1="12.2969" y2="2503.4023"/><ellipse cx="1555.875" cy="497.7988" fill="#222222" rx="10" ry="10" style="stroke:#222222;stroke-width:1.0;"/><path d="M1152.875,517.7988 L1152.875,665.5938 A0,0 0 0 0 1152.875,665.5938 L1490.875,665.5938 A0,0 0 0 0 1490.875,665.5938 L1490.875,595.6963 L1510.875,591.6963 L1490.875,587.6963 L1490.875,527.7988 L1480.875,517.7988 L1152.875,517.7988 A0,0 0 0 0 1152.875,517.7988 " fill="#FEFFDD" style="stroke:#181818;stroke-width:0.5;"/><path d="M1480.875,517.7988 L1480.875,527.7988 L1490.875,527.7988 L1480.875,517.7988 " fill="#FEFFDD" style="stroke:#181818;stroke-width:0.5;"/><text fill="#000000" font-family="sans-serif" font-size="13" lengthAdjust="spacing" textLength="56" x="1158.875" y="535.3672">Da Vinci:</text><ellipse cx="1164.375" cy="545.9199" fill="#000000" rx="2.5" ry="2.5" style="stroke:#000000;stroke-width:0.0;"/><text fill="#000000" font-family="sans-serif" font-size="13" lengthAdjust="spacing" textLength="66" x="1170.875" y="550.6777">Individual:</text><text fill="#000000" font-family="sans-serif" font-size="13" lengthAdjust="spacing" textLength="301" x="1174.875" y="565.9883">- Una pregunta, env&#237;as tu respuesta y la califica</text><ellipse cx="1164.375" cy="576.541" fill="#000000" rx="2.5" ry="2.5" style="stroke:#000000;stroke-width:0.0;"/><text fill="#000000" font-family="sans-serif" font-size="13" lengthAdjust="spacing" textLength="42" x="1170.875" y="581.2988">Grupo:</text><text fill="#000000" font-family="sans-serif" font-size="13" lengthAdjust="spacing" textLength="273" x="1174.875" y="596.6094">- Un conjunto de preguntas (agrupadas por</text><text fill="#000000" font-family="sans-serif" font-size="13" lengthAdjust="spacing" textLength="209" x="1174.875" y="611.9199">&#193;rea, Curso, Tema, etc), env&#237;a las</text><text fill="#000000" font-family="sans-serif" font-size="13" lengthAdjust="spacing" textLength="253" x="1174.875" y="627.2305">respuestas de todo el grupo y las eval&#250;a</text><ellipse cx="1164.375" cy="637.7832" fill="#000000" rx="2.5" ry="2.5" style="stroke:#000000;stroke-width:0.0;"/><text fill="#000000" font-family="sans-serif" font-size="13" lengthAdjust="spacing" textLength="123" x="1170.875" y="642.541">Ex&#225;menes pasados:</text><text fill="#000000" font-family="sans-serif" font-size="13" lengthAdjust="spacing" textLength="286" x="1174.875" y="657.8516">- Ex&#225;menes de admisi&#243;n pasados, completos</text><rect fill="#F1F1F1" height="34.1328" rx="12.5" ry="12.5" style="stroke:#181818;stroke-width:0.5;" width="90" x="1510.875" y="574.6299"/><text fill="#000000" font-family="sans-serif" font-size="12" lengthAdjust="spacing" textLength="70" x="1520.875" y="596.2314">Abre la App</text><line style="stroke:#181818;stroke-width:1.5;" x1="1038.5" x2="2033.25" y1="739.7266" y2="739.7266"/><path d="M661,1287.9844 L661,1399.8477 A0,0 0 0 0 661,1399.8477 L959,1399.8477 A0,0 0 0 0 959,1399.8477 L959,1347.916 L979,1343.916 L959,1339.916 L959,1297.9844 L949,1287.9844 L661,1287.9844 A0,0 0 0 0 661,1287.9844 " fill="#FEFFDD" style="stroke:#181818;stroke-width:0.5;"/><path d="M949,1287.9844 L949,1297.9844 L959,1297.9844 L949,1287.9844 " fill="#FEFFDD" style="stroke:#181818;stroke-width:0.5;"/><ellipse cx="672.5" cy="1300.7949" fill="#000000" rx="2.5" ry="2.5" style="stroke:#000000;stroke-width:0.0;"/><text fill="#000000" font-family="sans-serif" font-size="13" lengthAdjust="spacing" textLength="265" x="679" y="1305.5527">Un conjunto de preguntas, agrupadas por:</text><text fill="#000000" font-family="sans-serif" font-size="13" lengthAdjust="spacing" textLength="40" x="667" y="1320.8633">- &#193;rea</text><text fill="#000000" font-family="sans-serif" font-size="13" lengthAdjust="spacing" textLength="49" x="667" y="1336.1738">- Curso</text><text fill="#000000" font-family="sans-serif" font-size="13" lengthAdjust="spacing" textLength="46" x="667" y="1351.4844">- Tema</text><line style="stroke:#181818;stroke-width:1.0;" x1="661" x2="959" y1="1359.2266" y2="1359.2266"/><line style="stroke:#181818;stroke-width:1.0;" x1="661" x2="959" y1="1361.2266" y2="1361.2266"/><ellipse cx="672.5" cy="1372.0371" fill="#000000" rx="2.5" ry="2.5" style="stroke:#000000;stroke-width:0.0;"/><text fill="#000000" font-family="sans-serif" font-size="13" lengthAdjust="spacing" textLength="246" x="679" y="1376.7949">Env&#237;a las respuestas de todo el grupo y</text><text fill="#000000" font-family="sans-serif" font-size="13" lengthAdjust="spacing" textLength="141" x="683" y="1392.1055">las eval&#250;a en conjunto</text><rect fill="#F1F1F1" height="34.1328" rx="12.5" ry="12.5" style="stroke:#181818;stroke-width:0.5;" width="119" x="979" y="1326.8496"/><text fill="#000000" font-family="sans-serif" font-size="12" lengthAdjust="spacing" textLength="99" x="989" y="1348.4512">Selecciona Grupo</text><ellipse cx="1038.5" cy="1444.8477" fill="none" rx="10" ry="10" style="stroke:#222222;stroke-width:1.5;"/><line style="stroke:#222222;stroke-width:2.5;" x1="1032.3128" x2="1044.6872" y1="1438.6605" y2="1451.0348"/><line style="stroke:#222222;stroke-width:2.5;" x1="1044.6872" x2="1032.3128" y1="1438.6605" y2="1451.0348"/><path d="M1108,1315.9502 L1108,1371.8818 A0,0 0 0 0 1108,1371.8818 L1355,1371.8818 A0,0 0 0 0 1355,1371.8818 L1355,1347.916 L1375,1343.916 L1355,1339.916 L1355,1325.9502 L1345,1315.9502 L1108,1315.9502 A0,0 0 0 0 1108,1315.9502 " fill="#FEFFDD" style="stroke:#181818;stroke-width:0.5;"/><path d="M1345,1315.9502 L1345,1325.9502 L1355,1325.9502 L1345,1315.9502 " fill="#FEFFDD" style="stroke:#181818;stroke-width:0.5;"/><ellipse cx="1119.5" cy="1328.7607" fill="#000000" rx="2.5" ry="2.5" style="stroke:#000000;stroke-width:0.0;"/><text fill="#000000" font-family="sans-serif" font-size="13" lengthAdjust="spacing" textLength="214" x="1126" y="1333.5186">Ex&#225;menes de admisi&#243;n completos</text><ellipse cx="1119.5" cy="1344.0713" fill="#000000" rx="2.5" ry="2.5" style="stroke:#000000;stroke-width:0.0;"/><text fill="#000000" font-family="sans-serif" font-size="13" lengthAdjust="spacing" textLength="177" x="1126" y="1348.8291">Env&#237;a todas las respuestas y</text><text fill="#000000" font-family="sans-serif" font-size="13" lengthAdjust="spacing" textLength="141" x="1130" y="1364.1396">las eval&#250;a en conjunto</text><rect fill="#F1F1F1" height="34.1328" rx="12.5" ry="12.5" style="stroke:#181818;stroke-width:0.5;" width="132" x="1375" y="1326.8496"/><text fill="#000000" font-family="sans-serif" font-size="12" lengthAdjust="spacing" textLength="112" x="1385" y="1348.4512">Ex&#225;menes pasados</text><ellipse cx="1441" cy="1416.8818" fill="none" rx="10" ry="10" style="stroke:#222222;stroke-width:1.5;"/><line style="stroke:#222222;stroke-width:2.5;" x1="1434.8128" x2="1447.1872" y1="1410.6947" y2="1423.069"/><line style="stroke:#222222;stroke-width:2.5;" x1="1447.1872" x2="1434.8128" y1="1410.6947" y2="1423.069"/><path d="M1785.25,749.7266 L1785.25,820.9688 A0,0 0 0 0 1785.25,820.9688 L1948.25,820.9688 A0,0 0 0 0 1948.25,820.9688 L1948.25,789.3477 L1968.25,785.3477 L1948.25,781.3477 L1948.25,759.7266 L1938.25,749.7266 L1785.25,749.7266 A0,0 0 0 0 1785.25,749.7266 " fill="#FEFFDD" style="stroke:#181818;stroke-width:0.5;"/><path d="M1938.25,749.7266 L1938.25,759.7266 L1948.25,759.7266 L1938.25,749.7266 " fill="#FEFFDD" style="stroke:#181818;stroke-width:0.5;"/><ellipse cx="1796.75" cy="762.5371" fill="#000000" rx="2.5" ry="2.5" style="stroke:#000000;stroke-width:0.0;"/><text fill="#000000" font-family="sans-serif" font-size="13" lengthAdjust="spacing" textLength="88" x="1803.25" y="767.2949">Una pregunta,</text><text fill="#000000" font-family="sans-serif" font-size="13" lengthAdjust="spacing" textLength="126" x="1807.25" y="782.6055">env&#237;as tu respuesta,</text><text fill="#000000" font-family="sans-serif" font-size="13" lengthAdjust="spacing" textLength="71" x="1807.25" y="797.916">la califica y</text><text fill="#000000" font-family="sans-serif" font-size="13" lengthAdjust="spacing" textLength="109" x="1807.25" y="813.2266">muestra soluci&#243;n</text><rect fill="#F1F1F1" height="34.1328" rx="12.5" ry="12.5" style="stroke:#181818;stroke-width:0.5;" width="130" x="1968.25" y="768.2813"/><text fill="#000000" font-family="sans-serif" font-size="12" lengthAdjust="spacing" textLength="110" x="1978.25" y="789.8828">Pregunta Individual</text><path d="M1803.25,830.9688 L1803.25,912.2109 A0,0 0 0 0 1803.25,912.2109 L1970.25,912.2109 A0,0 0 0 0 1970.25,912.2109 L1970.25,875.5898 L1990.25,871.5898 L1970.25,867.5898 L1970.25,840.9688 L1960.25,830.9688 L1803.25,830.9688 A0,0 0 0 0 1803.25,830.9688 " fill="#FEFFDD" style="stroke:#181818;stroke-width:0.5;"/><path d="M1960.25,830.9688 L1960.25,840.9688 L1970.25,840.9688 L1960.25,830.9688 " fill="#FEFFDD" style="stroke:#181818;stroke-width:0.5;"/><text fill="#000000" font-family="sans-serif" font-size="13" lengthAdjust="spacing" textLength="110" x="1809.25" y="848.5371">- Curso Aleatorio</text><text fill="#000000" font-family="sans-serif" font-size="13" lengthAdjust="spacing" textLength="109" x="1809.25" y="863.8477">- Lista de Cursos</text><line style="stroke:#181818;stroke-width:1.0;" x1="1803.25" x2="1970.25" y1="871.5898" y2="871.5898"/><line style="stroke:#181818;stroke-width:1.0;" x1="1803.25" x2="1970.25" y1="873.5898" y2="873.5898"/><ellipse cx="1814.75" cy="884.4004" fill="#000000" rx="2.5" ry="2.5" style="stroke:#000000;stroke-width:0.0;"/><text fill="#000000" font-family="sans-serif" font-size="13" lengthAdjust="spacing" textLength="112" x="1821.25" y="889.1582">Todos los cursos:</text><text fill="#000000" font-family="sans-serif" font-size="13" lengthAdjust="spacing" textLength="130" x="1825.25" y="904.4688">- M&#237;nimo 1 Pregunta</text><rect fill="#F1F1F1" height="48.2656" rx="12.5" ry="12.5" style="stroke:#181818;stroke-width:0.5;" width="86" x="1990.25" y="847.457"/><text fill="#000000" font-family="sans-serif" font-size="12" lengthAdjust="spacing" textLength="49" x="2000.25" y="869.0586">Pantalla:</text><text fill="#000000" font-family="sans-serif" font-size="12" lengthAdjust="spacing" textLength="50" x="2016.25" y="883.1914">- Cursos</text><polygon fill="#F1F1F1" points="2005.25,932.2109,2061.25,932.2109,2073.25,944.2109,2061.25,956.2109,2005.25,956.2109,1993.25,944.2109,2005.25,932.2109" style="stroke:#181818;stroke-width:0.5;"/><text fill="#000000" font-family="sans-serif" font-size="11" lengthAdjust="spacing" textLength="56" x="2005.25" y="948.3682">Selecciona</text><text fill="#000000" font-family="sans-serif" font-size="11" lengthAdjust="spacing" textLength="50" x="1943.25" y="941.8906">un Curso</text><text fill="#000000" font-family="sans-serif" font-size="11" lengthAdjust="spacing" textLength="83" x="2073.25" y="941.8906">Curso aleatorio</text><path d="M1545,966.2109 L1545,1047.4531 A0,0 0 0 0 1545,1047.4531 L1712,1047.4531 A0,0 0 0 0 1712,1047.4531 L1712,1010.832 L1732,1006.832 L1712,1002.832 L1712,976.2109 L1702,966.2109 L1545,966.2109 A0,0 0 0 0 1545,966.2109 " fill="#FEFFDD" style="stroke:#181818;stroke-width:0.5;"/><path d="M1702,966.2109 L1702,976.2109 L1712,976.2109 L1702,966.2109 " fill="#FEFFDD" style="stroke:#181818;stroke-width:0.5;"/><text fill="#000000" font-family="sans-serif" font-size="13" lengthAdjust="spacing" textLength="107" x="1551" y="983.7793">- Tema Aleatorio</text><text fill="#000000" font-family="sans-serif" font-size="13" lengthAdjust="spacing" textLength="106" x="1551" y="999.0898">- Lista de Temas</text><line style="stroke:#181818;stroke-width:1.0;" x1="1545" x2="1712" y1="1006.832" y2="1006.832"/><line style="stroke:#181818;stroke-width:1.0;" x1="1545" x2="1712" y1="1008.832" y2="1008.832"/><ellipse cx="1556.5" cy="1019.6426" fill="#000000" rx="2.5" ry="2.5" style="stroke:#000000;stroke-width:0.0;"/><text fill="#000000" font-family="sans-serif" font-size="13" lengthAdjust="spacing" textLength="108" x="1563" y="1024.4004">Todos los temas:</text><text fill="#000000" font-family="sans-serif" font-size="13" lengthAdjust="spacing" textLength="130" x="1567" y="1039.7109">- M&#237;nimo 1 Pregunta</text><rect fill="#F1F1F1" height="48.2656" rx="12.5" ry="12.5" style="stroke:#181818;stroke-width:0.5;" width="145" x="1732" y="982.6992"/><text fill="#000000" font-family="sans-serif" font-size="12" lengthAdjust="spacing" textLength="49" x="1742" y="1004.3008">Pantalla:</text><text fill="#000000" font-family="sans-serif" font-size="12" lengthAdjust="spacing" textLength="109" x="1758" y="1018.4336">- Temas del Curso</text><polygon fill="#F1F1F1" points="1776.5,1067.4531,1832.5,1067.4531,1844.5,1079.4531,1832.5,1091.4531,1776.5,1091.4531,1764.5,1079.4531,1776.5,1067.4531" style="stroke:#181818;stroke-width:0.5;"/><text fill="#000000" font-family="sans-serif" font-size="11" lengthAdjust="spacing" textLength="56" x="1776.5" y="1083.6104">Selecciona</text><text fill="#000000" font-family="sans-serif" font-size="11" lengthAdjust="spacing" textLength="46" x="1718.5" y="1077.1328">un Tema</text><text fill="#000000" font-family="sans-serif" font-size="11" lengthAdjust="spacing" textLength="79" x="1844.5" y="1077.1328">Tema aleatorio</text><rect fill="#F1F1F1" height="48.2656" rx="12.5" ry="12.5" style="stroke:#181818;stroke-width:0.5;" width="169" x="1625.5" y="1101.4531"/><text fill="#000000" font-family="sans-serif" font-size="12" lengthAdjust="spacing" textLength="131" x="1635.5" y="1123.0547">Problema de Admisi&#243;n</text><text fill="#000000" font-family="sans-serif" font-size="12" lengthAdjust="spacing" textLength="133" x="1651.5" y="1137.1875">del Tema seleccionado</text><rect fill="#F1F1F1" height="48.2656" rx="12.5" ry="12.5" style="stroke:#181818;stroke-width:0.5;" width="169" x="1814.5" y="1101.4531"/><text fill="#000000" font-family="sans-serif" font-size="12" lengthAdjust="spacing" textLength="131" x="1824.5" y="1123.0547">Problema de Admisi&#243;n</text><text fill="#000000" font-family="sans-serif" font-size="12" lengthAdjust="spacing" textLength="133" x="1840.5" y="1137.1875">del Curso seleccionado</text><polygon fill="#F1F1F1" points="1804.5,1155.7188,1816.5,1167.7188,1804.5,1179.7188,1792.5,1167.7188,1804.5,1155.7188" style="stroke:#181818;stroke-width:0.5;"/><path d="M2013.5,970.0332 L2013.5,1010.6543 A0,0 0 0 0 2013.5,1010.6543 L2166.5,1010.6543 A0,0 0 0 0 2166.5,1010.6543 L2166.5,994.3438 L2186.5,990.3438 L2166.5,986.3438 L2166.5,980.0332 L2156.5,970.0332 L2013.5,970.0332 A0,0 0 0 0 2013.5,970.0332 " fill="#FEFFDD" style="stroke:#181818;stroke-width:0.5;"/><path d="M2156.5,970.0332 L2156.5,980.0332 L2166.5,980.0332 L2156.5,970.0332 " fill="#FEFFDD" style="stroke:#181818;stroke-width:0.5;"/><text fill="#000000" font-family="sans-serif" font-size="13" lengthAdjust="spacing" textLength="132" x="2019.5" y="987.6016">- De cualquier Curso</text><text fill="#000000" font-family="sans-serif" font-size="13" lengthAdjust="spacing" textLength="129" x="2019.5" y="1002.9121">- De cualquier Tema</text><rect fill="#F1F1F1" height="48.2656" rx="12.5" ry="12.5" style="stroke:#181818;stroke-width:0.5;" width="151" x="2186.5" y="966.2109"/><text fill="#000000" font-family="sans-serif" font-size="12" lengthAdjust="spacing" textLength="131" x="2196.5" y="987.8125">Problema de Admisi&#243;n</text><text fill="#000000" font-family="sans-serif" font-size="12" lengthAdjust="spacing" textLength="109" x="2212.5" y="1001.9453">de cualquier Curso</text><polygon fill="#F1F1F1" points="2033.25,1185.7188,2045.25,1197.7188,2033.25,1209.7188,2021.25,1197.7188,2033.25,1185.7188" style="stroke:#181818;stroke-width:0.5;"/><path d="M1745.25,1296.9277 L1745.25,1368.1699 A0,0 0 0 0 1745.25,1368.1699 L1892.25,1368.1699 A0,0 0 0 0 1892.25,1368.1699 L1892.25,1336.5488 L1912.25,1332.5488 L1892.25,1328.5488 L1892.25,1306.9277 L1882.25,1296.9277 L1745.25,1296.9277 A0,0 0 0 0 1745.25,1296.9277 " fill="#FEFFDD" style="stroke:#181818;stroke-width:0.5;"/><path d="M1882.25,1296.9277 L1882.25,1306.9277 L1892.25,1306.9277 L1882.25,1296.9277 " fill="#FEFFDD" style="stroke:#181818;stroke-width:0.5;"/><text fill="#000000" font-family="sans-serif" font-size="13" lengthAdjust="spacing" textLength="126" x="1751.25" y="1314.4961">- Nombre del Curso</text><text fill="#000000" font-family="sans-serif" font-size="13" lengthAdjust="spacing" textLength="123" x="1751.25" y="1329.8066">- Nombre del Tema</text><text fill="#000000" font-family="sans-serif" font-size="13" lengthAdjust="spacing" textLength="77" x="1751.25" y="1345.1172">- Enunciado</text><text fill="#000000" font-family="sans-serif" font-size="13" lengthAdjust="spacing" textLength="87" x="1751.25" y="1360.4277">- Alternativas</text><rect fill="#F1F1F1" height="48.2656" rx="12.5" ry="12.5" style="stroke:#181818;stroke-width:0.5;" width="242" x="1912.25" y="1308.416"/><text fill="#000000" font-family="sans-serif" font-size="12" lengthAdjust="spacing" textLength="199" x="1922.25" y="1330.0176">Muestra un Problema de Admisi&#243;n</text><text fill="#000000" font-family="sans-serif" font-size="12" lengthAdjust="spacing" textLength="206" x="1938.25" y="1344.1504">del Banco de Preguntas de Da Vinci</text><rect fill="#F1F1F1" height="34.1328" rx="12.5" ry="12.5" style="stroke:#181818;stroke-width:0.5;" width="169" x="1948.75" y="1403.1699"/><text fill="#000000" font-family="sans-serif" font-size="12" lengthAdjust="spacing" textLength="149" x="1958.75" y="1424.7715">Selecciona una Alternativa</text><rect fill="#F1F1F1" height="48.2656" rx="12.5" ry="12.5" style="stroke:#181818;stroke-width:0.5;" width="144" x="1961.25" y="1472.3027"/><text fill="#000000" font-family="sans-serif" font-size="12" lengthAdjust="spacing" textLength="87" x="1971.25" y="1493.9043">Le da al bot&#243;n:</text><text fill="#000000" font-family="sans-serif" font-size="12" lengthAdjust="spacing" textLength="108" x="1987.25" y="1508.0371">Enviar (Alternativa)</text><path d="M1673.25,1544.9795 L1673.25,1570.29 A0,0 0 0 0 1673.25,1570.29 L1939.25,1570.29 A0,0 0 0 0 1939.25,1570.29 L1939.25,1562.9795 L1959.25,1557.6348 L1939.25,1554.9795 L1939.25,1554.9795 L1929.25,1544.9795 L1673.25,1544.9795 A0,0 0 0 0 1673.25,1544.9795 " fill="#FEFFDD" style="stroke:#181818;stroke-width:0.5;"/><path d="M1929.25,1544.9795 L1929.25,1554.9795 L1939.25,1554.9795 L1929.25,1544.9795 " fill="#FEFFDD" style="stroke:#181818;stroke-width:0.5;"/><text fill="#000000" font-family="sans-serif" font-size="13" lengthAdjust="spacing" textLength="245" x="1679.25" y="1562.5479">puede dejar en blanco (saltar pregunta)</text><rect fill="#F1F1F1" height="34.1328" rx="12.5" ry="12.5" style="stroke:#181818;stroke-width:0.5;" width="148" x="1959.25" y="1540.5684"/><text fill="#000000" font-family="sans-serif" font-size="12" lengthAdjust="spacing" textLength="128" x="1969.25" y="1562.1699">Se env&#237;a su Respuesta</text><rect fill="#F1F1F1" height="34.1328" rx="12.5" ry="12.5" style="stroke:#181818;stroke-width:0.5;" width="189" x="1938.75" y="1594.7012"/><text fill="#000000" font-family="sans-serif" font-size="12" lengthAdjust="spacing" textLength="169" x="1948.75" y="1616.3027">Da Vinci eval&#250;a su Respuesta</text><path d="M1756.25,1694.9775 L1756.25,1750.9092 A0,0 0 0 0 1756.25,1750.9092 L1930.25,1750.9092 A0,0 0 0 0 1930.25,1750.9092 L1930.25,1726.9434 L1950.25,1722.9434 L1930.25,1718.9434 L1930.25,1704.9775 L1920.25,1694.9775 L1756.25,1694.9775 A0,0 0 0 0 1756.25,1694.9775 " fill="#FEFFDD" style="stroke:#181818;stroke-width:0.5;"/><path d="M1920.25,1694.9775 L1920.25,1704.9775 L1930.25,1704.9775 L1920.25,1694.9775 " fill="#FEFFDD" style="stroke:#181818;stroke-width:0.5;"/><ellipse cx="1767.75" cy="1707.7881" fill="#000000" rx="2.5" ry="2.5" style="stroke:#000000;stroke-width:0.0;"/><text fill="#000000" font-family="sans-serif" font-size="13" lengthAdjust="spacing" textLength="49" x="1774.25" y="1712.5459">Resalta:</text><text fill="#000000" font-family="sans-serif" font-size="13" lengthAdjust="spacing" textLength="150" x="1762.25" y="1727.8564">- La Alternativa enviada</text><text fill="#000000" font-family="sans-serif" font-size="13" lengthAdjust="spacing" textLength="153" x="1762.25" y="1743.167">- La Alternativa correcta</text><rect fill="#F1F1F1" height="118.9297" rx="12.5" ry="12.5" style="stroke:#181818;stroke-width:0.5;" width="166" x="1950.25" y="1663.4785"/><text fill="#000000" font-family="sans-serif" font-size="12" lengthAdjust="spacing" textLength="114" x="1960.25" y="1685.0801">Muestra la Solucion:</text><text fill="#000000" font-family="sans-serif" font-size="12" lengthAdjust="spacing" textLength="66" x="1976.25" y="1699.2129">-Enunciado</text><text fill="#000000" font-family="sans-serif" font-size="12" lengthAdjust="spacing" textLength="78" x="1976.25" y="1713.3457">- Alternativas</text><text fill="#000000" font-family="sans-serif" font-size="12" lengthAdjust="spacing" textLength="72" x="1976.25" y="1727.4785">- Resoluci&#243;n</text><text fill="#000000" font-family="sans-serif" font-size="12" lengthAdjust="spacing" textLength="130" x="1976.25" y="1741.6113">- Teor&#237;a del Tema y/o</text><text fill="#000000" font-family="sans-serif" font-size="12" lengthAdjust="spacing" textLength="104" x="1992.25" y="1755.7441">Curso relacionado</text><text fill="#000000" font-family="sans-serif" font-size="12" lengthAdjust="spacing" textLength="109" x="1976.25" y="1769.877">- Puntaje obtenido</text><rect fill="#F1F1F1" height="34.1328" rx="12.5" ry="12.5" style="stroke:#181818;stroke-width:0.5;" width="259" x="1903.75" y="1802.4082"/><text fill="#000000" font-family="sans-serif" font-size="12" lengthAdjust="spacing" textLength="239" x="1913.75" y="1824.0098">Tambi&#233;n muestra botones de navegaci&#243;n</text><rect fill="#F1F1F1" height="34.1328" rx="12.5" ry="12.5" style="stroke:#181818;stroke-width:0.5;" width="250" x="1908.25" y="1856.541"/><text fill="#000000" font-family="sans-serif" font-size="12" lengthAdjust="spacing" textLength="230" x="1918.25" y="1878.1426">Muestra un bot&#243;n de Siguiente Pregunta</text><rect fill="#F1F1F1" height="34.1328" rx="12.5" ry="12.5" style="stroke:#181818;stroke-width:0.5;" width="429" x="1818.75" y="1910.6738"/><text fill="#000000" font-family="sans-serif" font-size="12" lengthAdjust="spacing" textLength="409" x="1828.75" y="1932.2754">Muestra un Problema de Admisi&#243;n del Banco de Preguntas de Da Vinci</text><rect fill="#F1F1F1" height="48.2656" rx="12.5" ry="12.5" style="stroke:#181818;stroke-width:0.5;" width="218" x="1924.25" y="1229.7188"/><text fill="#000000" font-family="sans-serif" font-size="12" lengthAdjust="spacing" textLength="120" x="1934.25" y="1251.3203">Solicita una pregunta</text><text fill="#000000" font-family="sans-serif" font-size="12" lengthAdjust="spacing" textLength="198" x="1934.25" y="1265.4531">al Banco de Preguntas de Da Vinci</text><polygon fill="#F1F1F1" points="1957.75,1964.8066,2108.75,1964.8066,2120.75,1976.8066,2108.75,1988.8066,1957.75,1988.8066,1945.75,1976.8066,1957.75,1964.8066" style="stroke:#181818;stroke-width:0.5;"/><text fill="#000000" font-family="sans-serif" font-size="11" lengthAdjust="spacing" textLength="151" x="1957.75" y="1980.9639">bot&#243;n de Siguiente Pregunta</text><rect fill="#F1F1F1" height="34.1328" rx="12.5" ry="12.5" style="stroke:#181818;stroke-width:0.5;" width="197" x="2271.75" y="1599.3457"/><text fill="#000000" font-family="sans-serif" font-size="12" lengthAdjust="spacing" textLength="173" x="2285.75" y="1620.9473">Otra pregunta de su selecci&#243;n</text><line style="stroke:#181818;stroke-width:1.5;" x1="1555.875" x2="2033.25" y1="2008.8066" y2="2008.8066"/><rect fill="#F1F1F1" height="34.1328" rx="12.5" ry="12.5" style="stroke:#181818;stroke-width:0.5;" width="124" x="1493.875" y="685.5938"/><text fill="#000000" font-family="sans-serif" font-size="12" lengthAdjust="spacing" textLength="104" x="1503.875" y="707.1953">Home de Da Vinci</text><polygon fill="#F1F1F1" points="1516.875,2028.8066,1594.875,2028.8066,1606.875,2040.8066,1594.875,2052.8066,1516.875,2052.8066,1504.875,2040.8066,1516.875,2028.8066" style="stroke:#181818;stroke-width:0.5;"/><text fill="#000000" font-family="sans-serif" font-size="11" lengthAdjust="spacing" textLength="78" x="1516.875" y="2044.9639">bot&#243;n al Home</text><rect fill="#F1F1F1" height="34.1328" rx="12.5" ry="12.5" style="stroke:#181818;stroke-width:0.5;" width="167" x="2478.75" y="1349.2832"/><text fill="#000000" font-family="sans-serif" font-size="12" lengthAdjust="spacing" textLength="147" x="2488.75" y="1370.8848">Selecciona otras opciones</text><ellipse cx="1555.875" cy="2083.8066" fill="none" rx="11" ry="11" style="stroke:#222222;stroke-width:1.0;"/><ellipse cx="1555.875" cy="2083.8066" fill="#222222" rx="6" ry="6" style="stroke:#222222;stroke-width:1.0;"/><line style="stroke:#000000;stroke-width:1.5;" x1="656" x2="656" y1="12.2969" y2="2503.4023"/><ellipse cx="2967.75" cy="2114.8066" fill="#222222" rx="10" ry="10" style="stroke:#222222;stroke-width:1.0;"/><rect fill="#F1F1F1" height="34.1328" rx="12.5" ry="12.5" style="stroke:#181818;stroke-width:0.5;" width="50" x="2942.75" y="2144.8066"/><text fill="#000000" font-family="sans-serif" font-size="12" lengthAdjust="spacing" textLength="30" x="2952.75" y="2166.4082">Login</text><rect fill="#F1F1F1" height="34.1328" rx="12.5" ry="12.5" style="stroke:#181818;stroke-width:0.5;" width="96" x="2919.75" y="2198.9395"/><text fill="#000000" font-family="sans-serif" font-size="12" lengthAdjust="spacing" textLength="76" x="2929.75" y="2220.541">Autenticaci&#243;n</text><path d="M2654.75,2243.0723 L2654.75,2299.0039 A0,0 0 0 0 2654.75,2299.0039 L2819.75,2299.0039 A0,0 0 0 0 2819.75,2299.0039 L2819.75,2275.0381 L2839.75,2271.0381 L2819.75,2267.0381 L2819.75,2253.0723 L2809.75,2243.0723 L2654.75,2243.0723 A0,0 0 0 0 2654.75,2243.0723 " fill="#FEFFDD" style="stroke:#181818;stroke-width:0.5;"/><path d="M2809.75,2243.0723 L2809.75,2253.0723 L2819.75,2253.0723 L2809.75,2243.0723 " fill="#FEFFDD" style="stroke:#181818;stroke-width:0.5;"/><text fill="#000000" font-family="sans-serif" font-size="13" lengthAdjust="spacing" textLength="40" x="2660.75" y="2260.6406">- &#193;rea</text><text fill="#000000" font-family="sans-serif" font-size="13" lengthAdjust="spacing" textLength="117" x="2660.75" y="2275.9512">- Temporada (a&#241;o)</text><text fill="#000000" font-family="sans-serif" font-size="13" lengthAdjust="spacing" textLength="144" x="2660.75" y="2291.2617">- Examen de Admisi&#243;n</text><rect fill="#F1F1F1" height="34.1328" rx="12.5" ry="12.5" style="stroke:#181818;stroke-width:0.5;" width="256" x="2839.75" y="2253.9717"/><text fill="#000000" font-family="sans-serif" font-size="12" lengthAdjust="spacing" textLength="236" x="2849.75" y="2275.5732">Completar datos donde va ir la pregunta</text><rect fill="#F1F1F1" height="34.1328" rx="12.5" ry="12.5" style="stroke:#181818;stroke-width:0.5;" width="118" x="2908.75" y="2319.0039"/><text fill="#000000" font-family="sans-serif" font-size="12" lengthAdjust="spacing" textLength="98" x="2918.75" y="2340.6055">Ingresa pregunta</text><rect fill="#F1F1F1" height="34.1328" rx="12.5" ry="12.5" style="stroke:#181818;stroke-width:0.5;" width="131" x="2902.25" y="2373.1367"/><text fill="#000000" font-family="sans-serif" font-size="12" lengthAdjust="spacing" textLength="111" x="2912.25" y="2394.7383">Agrega alternativas</text><rect fill="#F1F1F1" height="34.1328" rx="12.5" ry="12.5" style="stroke:#181818;stroke-width:0.5;" width="262" x="2836.75" y="2427.2695"/><text fill="#000000" font-family="sans-serif" font-size="12" lengthAdjust="spacing" textLength="242" x="2846.75" y="2448.8711">Muesta confirmaci&#243;n "Pregunta ingresada"</text><ellipse cx="2967.75" cy="2492.4023" fill="none" rx="11" ry="11" style="stroke:#222222;stroke-width:1.0;"/><ellipse cx="2967.75" cy="2492.4023" fill="#222222" rx="6" ry="6" style="stroke:#222222;stroke-width:1.0;"/><line style="stroke:#000000;stroke-width:1.5;" x1="2649.75" x2="2649.75" y1="12.2969" y2="2503.4023"/><line style="stroke:#000000;stroke-width:1.5;" x1="3102.75" x2="3102.75" y1="12.2969" y2="2503.4023"/><line style="stroke:#181818;stroke-width:1.0;" x1="185" x2="185" y1="79.9961" y2="98.4961"/><polygon fill="#181818" points="181,88.4961,185,98.4961,189,88.4961,185,92.4961" style="stroke:#181818;stroke-width:1.0;"/><line style="stroke:#181818;stroke-width:1.0;" x1="366" x2="366" y1="79.9961" y2="98.4961"/><polygon fill="#181818" points="362,88.4961,366,98.4961,370,88.4961,366,92.4961" style="stroke:#181818;stroke-width:1.0;"/><line style="stroke:#181818;stroke-width:1.0;" x1="570.5" x2="570.5" y1="79.9961" y2="98.4961"/><polygon fill="#181818" points="566.5,88.4961,570.5,98.4961,574.5,88.4961,570.5,92.4961" style="stroke:#181818;stroke-width:1.0;"/><line style="stroke:#181818;stroke-width:1.0;" x1="185" x2="185" y1="132.6289" y2="152.6289"/><polygon fill="#181818" points="181,142.6289,185,152.6289,189,142.6289,185,146.6289" style="stroke:#181818;stroke-width:1.0;"/><line style="stroke:#181818;stroke-width:1.0;" x1="366" x2="366" y1="132.6289" y2="152.6289"/><polygon fill="#181818" points="362,142.6289,366,152.6289,370,142.6289,366,146.6289" style="stroke:#181818;stroke-width:1.0;"/><line style="stroke:#181818;stroke-width:1.0;" x1="570.5" x2="570.5" y1="132.6289" y2="152.6289"/><polygon fill="#181818" points="566.5,142.6289,570.5,152.6289,574.5,142.6289,570.5,146.6289" style="stroke:#181818;stroke-width:1.0;"/><line style="stroke:#181818;stroke-width:1.0;" x1="395" x2="395" y1="58.4961" y2="78.4961"/><polygon fill="#181818" points="391,68.4961,395,78.4961,399,68.4961,395,72.4961" style="stroke:#181818;stroke-width:1.0;"/><line style="stroke:#181818;stroke-width:1.0;" x1="395" x2="395" y1="154.1289" y2="255.0811"/><polygon fill="#181818" points="391,245.0811,395,255.0811,399,245.0811,395,249.0811" style="stroke:#181818;stroke-width:1.0;"/><line style="stroke:#181818;stroke-width:1.0;" x1="395" x2="395" y1="289.2139" y2="401.666"/><polygon fill="#181818" points="391,391.666,395,401.666,399,391.666,395,395.666" style="stroke:#181818;stroke-width:1.0;"/><line style="stroke:#181818;stroke-width:1.0;" x1="395" x2="395" y1="435.7988" y2="455.7988"/><polygon fill="#181818" points="391,445.7988,395,455.7988,399,445.7988,395,449.7988" style="stroke:#181818;stroke-width:1.0;"/><line style="stroke:#181818;stroke-width:1.0;" x1="1555.875" x2="1555.875" y1="507.7988" y2="574.6299"/><polygon fill="#181818" points="1551.875,564.6299,1555.875,574.6299,1559.875,564.6299,1555.875,568.6299" style="stroke:#181818;stroke-width:1.0;"/><line style="stroke:#181818;stroke-width:1.0;" x1="1038.5" x2="1038.5" y1="1360.9824" y2="1434.8477"/><polygon fill="#181818" points="1034.5,1424.8477,1038.5,1434.8477,1042.5,1424.8477,1038.5,1428.8477" style="stroke:#181818;stroke-width:1.0;"/><line style="stroke:#181818;stroke-width:1.0;" x1="1441" x2="1441" y1="1360.9824" y2="1406.8818"/><polygon fill="#181818" points="1437,1396.8818,1441,1406.8818,1445,1396.8818,1441,1400.8818" style="stroke:#181818;stroke-width:1.0;"/><line style="stroke:#181818;stroke-width:1.0;" x1="2033.25" x2="2033.25" y1="802.4141" y2="847.457"/><polygon fill="#181818" points="2029.25,837.457,2033.25,847.457,2037.25,837.457,2033.25,841.457" style="stroke:#181818;stroke-width:1.0;"/><line style="stroke:#181818;stroke-width:1.0;" x1="1764.5" x2="1710" y1="1079.4531" y2="1079.4531"/><line style="stroke:#181818;stroke-width:1.0;" x1="1710" x2="1710" y1="1079.4531" y2="1101.4531"/><polygon fill="#181818" points="1706,1091.4531,1710,1101.4531,1714,1091.4531,1710,1095.4531" style="stroke:#181818;stroke-width:1.0;"/><line style="stroke:#181818;stroke-width:1.0;" x1="1844.5" x2="1899" y1="1079.4531" y2="1079.4531"/><line style="stroke:#181818;stroke-width:1.0;" x1="1899" x2="1899" y1="1079.4531" y2="1101.4531"/><polygon fill="#181818" points="1895,1091.4531,1899,1101.4531,1903,1091.4531,1899,1095.4531" style="stroke:#181818;stroke-width:1.0;"/><line style="stroke:#181818;stroke-width:1.0;" x1="1710" x2="1710" y1="1149.7188" y2="1167.7188"/><line style="stroke:#181818;stroke-width:1.0;" x1="1710" x2="1792.5" y1="1167.7188" y2="1167.7188"/><polygon fill="#181818" points="1782.5,1163.7188,1792.5,1167.7188,1782.5,1171.7188,1786.5,1167.7188" style="stroke:#181818;stroke-width:1.0;"/><line style="stroke:#181818;stroke-width:1.0;" x1="1899" x2="1899" y1="1149.7188" y2="1167.7188"/><line style="stroke:#181818;stroke-width:1.0;" x1="1899" x2="1816.5" y1="1167.7188" y2="1167.7188"/><polygon fill="#181818" points="1826.5,1163.7188,1816.5,1167.7188,1826.5,1171.7188,1822.5,1167.7188" style="stroke:#181818;stroke-width:1.0;"/><line style="stroke:#181818;stroke-width:1.0;" x1="1804.5" x2="1804.5" y1="1030.9648" y2="1067.4531"/><polygon fill="#181818" points="1800.5,1057.4531,1804.5,1067.4531,1808.5,1057.4531,1804.5,1061.4531" style="stroke:#181818;stroke-width:1.0;"/><line style="stroke:#181818;stroke-width:1.0;" x1="1993.25" x2="1804.5" y1="944.2109" y2="944.2109"/><line style="stroke:#181818;stroke-width:1.0;" x1="1804.5" x2="1804.5" y1="944.2109" y2="982.6992"/><polygon fill="#181818" points="1800.5,972.6992,1804.5,982.6992,1808.5,972.6992,1804.5,976.6992" style="stroke:#181818;stroke-width:1.0;"/><line style="stroke:#181818;stroke-width:1.0;" x1="2073.25" x2="2262" y1="944.2109" y2="944.2109"/><line style="stroke:#181818;stroke-width:1.0;" x1="2262" x2="2262" y1="944.2109" y2="966.2109"/><polygon fill="#181818" points="2258,956.2109,2262,966.2109,2266,956.2109,2262,960.2109" style="stroke:#181818;stroke-width:1.0;"/><line style="stroke:#181818;stroke-width:1.0;" x1="1804.5" x2="1804.5" y1="1179.7188" y2="1197.7188"/><line style="stroke:#181818;stroke-width:1.0;" x1="1804.5" x2="2021.25" y1="1197.7188" y2="1197.7188"/><polygon fill="#181818" points="2011.25,1193.7188,2021.25,1197.7188,2011.25,1201.7188,2015.25,1197.7188" style="stroke:#181818;stroke-width:1.0;"/><line style="stroke:#181818;stroke-width:1.0;" x1="2262" x2="2262" y1="1014.4766" y2="1197.7188"/><line style="stroke:#181818;stroke-width:1.0;" x1="2262" x2="2045.25" y1="1197.7188" y2="1197.7188"/><polygon fill="#181818" points="2055.25,1193.7188,2045.25,1197.7188,2055.25,1201.7188,2051.25,1197.7188" style="stroke:#181818;stroke-width:1.0;"/><line style="stroke:#181818;stroke-width:1.0;" x1="2033.25" x2="2033.25" y1="895.7227" y2="932.2109"/><polygon fill="#181818" points="2029.25,922.2109,2033.25,932.2109,2037.25,922.2109,2033.25,926.2109" style="stroke:#181818;stroke-width:1.0;"/><line style="stroke:#181818;stroke-width:1.0;" x1="2033.25" x2="2033.25" y1="1356.6816" y2="1403.1699"/><polygon fill="#181818" points="2029.25,1393.1699,2033.25,1403.1699,2037.25,1393.1699,2033.25,1397.1699" style="stroke:#181818;stroke-width:1.0;"/><line style="stroke:#181818;stroke-width:1.0;" x1="2033.25" x2="2033.25" y1="1437.3027" y2="1472.3027"/><polygon fill="#181818" points="2029.25,1462.3027,2033.25,1472.3027,2037.25,1462.3027,2033.25,1466.3027" style="stroke:#181818;stroke-width:1.0;"/><line style="stroke:#181818;stroke-width:1.0;" x1="2033.25" x2="2033.25" y1="1520.5684" y2="1540.5684"/><polygon fill="#181818" points="2029.25,1530.5684,2033.25,1540.5684,2037.25,1530.5684,2033.25,1534.5684" style="stroke:#181818;stroke-width:1.0;"/><line style="stroke:#181818;stroke-width:1.0;" x1="2033.25" x2="2033.25" y1="1574.7012" y2="1594.7012"/><polygon fill="#181818" points="2029.25,1584.7012,2033.25,1594.7012,2037.25,1584.7012,2033.25,1588.7012" style="stroke:#181818;stroke-width:1.0;"/><line style="stroke:#181818;stroke-width:1.0;" x1="2033.25" x2="2033.25" y1="1628.834" y2="1663.4785"/><polygon fill="#181818" points="2029.25,1653.4785,2033.25,1663.4785,2037.25,1653.4785,2033.25,1657.4785" style="stroke:#181818;stroke-width:1.0;"/><line style="stroke:#181818;stroke-width:1.0;" x1="2033.25" x2="2033.25" y1="1782.4082" y2="1802.4082"/><polygon fill="#181818" points="2029.25,1792.4082,2033.25,1802.4082,2037.25,1792.4082,2033.25,1796.4082" style="stroke:#181818;stroke-width:1.0;"/><line style="stroke:#181818;stroke-width:1.0;" x1="2033.25" x2="2033.25" y1="1836.541" y2="1856.541"/><polygon fill="#181818" points="2029.25,1846.541,2033.25,1856.541,2037.25,1846.541,2033.25,1850.541" style="stroke:#181818;stroke-width:1.0;"/><line style="stroke:#181818;stroke-width:1.0;" x1="2033.25" x2="2033.25" y1="1890.6738" y2="1910.6738"/><polygon fill="#181818" points="2029.25,1900.6738,2033.25,1910.6738,2037.25,1900.6738,2033.25,1904.6738" style="stroke:#181818;stroke-width:1.0;"/><line style="stroke:#181818;stroke-width:1.0;" x1="2033.25" x2="2033.25" y1="1277.9844" y2="1308.416"/><polygon fill="#181818" points="2029.25,1298.416,2033.25,1308.416,2037.25,1298.416,2033.25,1302.416" style="stroke:#181818;stroke-width:1.0;"/><line style="stroke:#181818;stroke-width:1.0;" x1="2120.75" x2="2370.25" y1="1976.8066" y2="1976.8066"/><line style="stroke:#181818;stroke-width:1.0;" x1="2370.25" x2="2370.25" y1="1633.4785" y2="1976.8066"/><polygon fill="#181818" points="2366.25,1643.4785,2370.25,1633.4785,2374.25,1643.4785,2370.25,1639.4785" style="stroke:#181818;stroke-width:1.0;"/><line style="stroke:#181818;stroke-width:1.0;" x1="2370.25" x2="2370.25" y1="1253.8516" y2="1599.3457"/><line style="stroke:#181818;stroke-width:1.0;" x1="2370.25" x2="2142.25" y1="1253.8516" y2="1253.8516"/><polygon fill="#181818" points="2152.25,1249.8516,2142.25,1253.8516,2152.25,1257.8516,2148.25,1253.8516" style="stroke:#181818;stroke-width:1.0;"/><line style="stroke:#181818;stroke-width:1.0;" x1="2033.25" x2="2033.25" y1="1944.8066" y2="1964.8066"/><polygon fill="#181818" points="2029.25,1954.8066,2033.25,1964.8066,2037.25,1954.8066,2033.25,1958.8066" style="stroke:#181818;stroke-width:1.0;"/><line style="stroke:#181818;stroke-width:1.0;" x1="2033.25" x2="2033.25" y1="1209.7188" y2="1229.7188"/><polygon fill="#181818" points="2029.25,1219.7188,2033.25,1229.7188,2037.25,1219.7188,2033.25,1223.7188" style="stroke:#181818;stroke-width:1.0;"/><line style="stroke:#181818;stroke-width:1.0;" x1="1038.5" x2="1038.5" y1="741.2266" y2="1326.8496"/><polygon fill="#181818" points="1034.5,1316.8496,1038.5,1326.8496,1042.5,1316.8496,1038.5,1320.8496" style="stroke:#181818;stroke-width:1.0;"/><line style="stroke:#181818;stroke-width:1.0;" x1="1441" x2="1441" y1="741.2266" y2="1326.8496"/><polygon fill="#181818" points="1437,1316.8496,1441,1326.8496,1445,1316.8496,1441,1320.8496" style="stroke:#181818;stroke-width:1.0;"/><line style="stroke:#181818;stroke-width:1.0;" x1="2033.25" x2="2033.25" y1="741.2266" y2="768.2813"/><polygon fill="#181818" points="2029.25,758.2813,2033.25,768.2813,2037.25,758.2813,2033.25,762.2813" style="stroke:#181818;stroke-width:1.0;"/><line style="stroke:#181818;stroke-width:1.0;" x1="2033.25" x2="2033.25" y1="1988.8066" y2="2008.8066"/><polygon fill="#181818" points="2029.25,1998.8066,2033.25,2008.8066,2037.25,1998.8066,2033.25,2002.8066" style="stroke:#181818;stroke-width:1.0;"/><line style="stroke:#181818;stroke-width:1.0;" x1="1555.875" x2="1555.875" y1="719.7266" y2="739.7266"/><polygon fill="#181818" points="1551.875,729.7266,1555.875,739.7266,1559.875,729.7266,1555.875,733.7266" style="stroke:#181818;stroke-width:1.0;"/><line style="stroke:#181818;stroke-width:1.0;" x1="1606.875" x2="2562.25" y1="2040.8066" y2="2040.8066"/><line style="stroke:#181818;stroke-width:1.0;" x1="2562.25" x2="2562.25" y1="1383.416" y2="2040.8066"/><polygon fill="#181818" points="2558.25,1393.416,2562.25,1383.416,2566.25,1393.416,2562.25,1389.416" style="stroke:#181818;stroke-width:1.0;"/><line style="stroke:#181818;stroke-width:1.0;" x1="2562.25" x2="2562.25" y1="702.6602" y2="1349.2832"/><line style="stroke:#181818;stroke-width:1.0;" x1="2562.25" x2="1617.875" y1="702.6602" y2="702.6602"/><polygon fill="#181818" points="1627.875,698.6602,1617.875,702.6602,1627.875,706.6602,1623.875,702.6602" style="stroke:#181818;stroke-width:1.0;"/><line style="stroke:#181818;stroke-width:1.0;" x1="1555.875" x2="1555.875" y1="2010.3066" y2="2028.8066"/><polygon fill="#181818" points="1551.875,2018.8066,1555.875,2028.8066,1559.875,2018.8066,1555.875,2022.8066" style="stroke:#181818;stroke-width:1.0;"/><line style="stroke:#181818;stroke-width:1.0;" x1="1555.875" x2="1555.875" y1="608.7627" y2="685.5938"/><polygon fill="#181818" points="1551.875,675.5938,1555.875,685.5938,1559.875,675.5938,1555.875,679.5938" style="stroke:#181818;stroke-width:1.0;"/><line style="stroke:#181818;stroke-width:1.0;" x1="1555.875" x2="1555.875" y1="2052.8066" y2="2072.8066"/><polygon fill="#181818" points="1551.875,2062.8066,1555.875,2072.8066,1559.875,2062.8066,1555.875,2066.8066" style="stroke:#181818;stroke-width:1.0;"/><line style="stroke:#181818;stroke-width:1.0;" x1="2967.75" x2="2967.75" y1="2124.8066" y2="2144.8066"/><polygon fill="#181818" points="2963.75,2134.8066,2967.75,2144.8066,2971.75,2134.8066,2967.75,2138.8066" style="stroke:#181818;stroke-width:1.0;"/><line style="stroke:#181818;stroke-width:1.0;" x1="2967.75" x2="2967.75" y1="2178.9395" y2="2198.9395"/><polygon fill="#181818" points="2963.75,2188.9395,2967.75,2198.9395,2971.75,2188.9395,2967.75,2192.9395" style="stroke:#181818;stroke-width:1.0;"/><line style="stroke:#181818;stroke-width:1.0;" x1="2967.75" x2="2967.75" y1="2233.0723" y2="2253.9717"/><polygon fill="#181818" points="2963.75,2243.9717,2967.75,2253.9717,2971.75,2243.9717,2967.75,2247.9717" style="stroke:#181818;stroke-width:1.0;"/><line style="stroke:#181818;stroke-width:1.0;" x1="2967.75" x2="2967.75" y1="2288.1045" y2="2319.0039"/><polygon fill="#181818" points="2963.75,2309.0039,2967.75,2319.0039,2971.75,2309.0039,2967.75,2313.0039" style="stroke:#181818;stroke-width:1.0;"/><line style="stroke:#181818;stroke-width:1.0;" x1="2967.75" x2="2967.75" y1="2353.1367" y2="2373.1367"/><polygon fill="#181818" points="2963.75,2363.1367,2967.75,2373.1367,2971.75,2363.1367,2967.75,2367.1367" style="stroke:#181818;stroke-width:1.0;"/><line style="stroke:#181818;stroke-width:1.0;" x1="2967.75" x2="2967.75" y1="2407.2695" y2="2427.2695"/><polygon fill="#181818" points="2963.75,2417.2695,2967.75,2427.2695,2971.75,2417.2695,2967.75,2421.2695" style="stroke:#181818;stroke-width:1.0;"/><line style="stroke:#181818;stroke-width:1.0;" x1="2967.75" x2="2967.75" y1="2461.4023" y2="2481.4023"/><polygon fill="#181818" points="2963.75,2471.4023,2967.75,2481.4023,2971.75,2471.4023,2967.75,2475.4023" style="stroke:#181818;stroke-width:1.0;"/><text fill="#000000" font-family="sans-serif" font-size="18" lengthAdjust="spacing" textLength="140" x="265.5" y="29.6992">Primer Contacto</text><text fill="#000000" font-family="sans-serif" font-size="18" lengthAdjust="spacing" textLength="71" x="1617.375" y="29.6992">Da Vinci</text><text fill="#000000" font-family="sans-serif" font-size="18" lengthAdjust="spacing" textLength="89" x="2831.75" y="29.6992">Backoffice</text><!--SRC=[jLV1RkCs4BtxAuYSx211qQkC7hpPe5t0wHhhjBtqGakqmonDQadAcorowQVak8SSYhtrgX_h8obHaYKxJeiI211Jm-7CUpF3cSU5vbkcoPMIbgPMFOwCfTgEHYEJ2sv712lvm39co5Abd0fcfk4JeHlAPIsGgYsJ6KsvaX3D64ahXKFYY_9fmoKrv3UsShAMwPHf9meT95oCbSofpBZSa9nkc9DxIyclNAPyEfBACkALdMFB55JmFsZYDox9jI12RPJbkMgVghx-8YbsJQfvdlBocsoBN7WPjo01yt6_8gOmPCVWpJqi_a9MJB8rXwCcAYIsVBQ5KEHJ0JjvofAevsoXMLu-QGfxSwefOOAKNn-uLQIGVCUquS2RgxDAsJBLZ4bpfwn7KL0oo_EMvOQbmMhW2zoCvLibQrk2uQG07b1fYA6McpLBxwAjS-pcklpsW6E6i0SArW9VDDjoupHxoH-mAdZdN7uqmNOk0OgWcZ1POpsJcLOygtxnzqjFeQF7C_YkFW4l40XMvTXzhE6kWosPhNJjQ-3Mwwl5aigITuY67Sz0TeDlG2NNR5E0eGjOjYkVmPCjY6OcBnoD80swKyG8UAELiXzraQkk7eVfFTJugAbL6ZAc6yZI3F_cIiSJvP-QuSAhGXjrGMxPrjrkqqbj0-viM8csUAojGbWX49nUvQq35pigohzhwwuVogT0JKuDpPHfMzfyRFDMIrx0ZMqk65AluG91oAWboKz8qsucEPKXGUCDoP895sOAo7gOfl5JvAPUvmTnko0Tt9BEiSi0tzwUnt9lpm7RsOgXsPXm7G4_3dJdc5ijuC5Qz2FAHVog7mZU1g-ce7dGUfGTHUq0XmrrWnx27rYyv-V_wzQYuhELVI-4GoiTUvODfUV5WFqnMmUysxfJg4P6YIAD5QldLx2UmWmXQ38KQSSOgaJ8J21l5AhftjSvTuK5t0LDBqNeBG8HnE4lzV99pwjBSbC-IvHbyZsfCJ_i65-JSPEb4ti7ciU53DPCEieFOD1abmj14KvEEoBD8zi_T02OFN2y-fv03vzzZAmxrZVtHPW6eHg0YqIyd86JtaK8UhKIpaluCEiyZFlBGUVnC55zjWSZ4uQHiHUYDMZ_-SuGdKSkHRQkHrqJmfa3Dfnul-liK08-5TmrZSCnCn0HRtl7NXBgrVqUiLqNwnTkgGIQCuHVqIf4v7T91Nb3PUhVg4LystjFOOJZfgeo299JaNdT3OUowsUrTTrG9FcuI0-cgaMG1Iv4L0nycmdqsnAjuMulDmTJfzqCE4XRf_SGcyCY5-9afIm0wkSl7Z6ELd3SKZ6PxbzMTq-c81_g5-A448DWvX2vzzqfMGdFnDXGWGupni7a17zhjk8BUjYI62Hui9R-DL83Rb_-ApB2PrpSU-NQXLXfXrKiGb- -KuCL8sI-Pe9MnM90sS81TC-8MbacUNPANfyx-np2Gq_Bl1ChZbP0G5yMJ9NMB3sbgYUtTBlYvLSPMm94NZr_IhfZ6-gHEvpP8LAT-99lK7QaRLBtbVNWLVc_ekd7prHd2NdlTCOo1M54MrNLEvPNvUtp7HUevCVidjHTNJL8rtTrCbdXMaDK7kRrwMXGFLBPpGkJUcvhhyStKAlMQD5OdEBc2bFz5DDSWGYoQDug7vAhqDKY4JCyFS14IPWEhhbsgPD7n2F5xVd0DnoO810zcCNAlwg7oyr1RdpjLkKOA1WzDsWnszgJ6NOshaGrEOVTcp0aeajUSxqDHlkvFN32WvwCdbK3x3y0]--></g></svg>